<svg xmlns="http://www.w3.org/2000/svg" viewBox="0 0 512 512">
  <defs>
    <linearGradient id="g" x1="0" y1="0" x2="1" y2="1">
      <stop offset="0%" stop-color="#1d4ed8"/>
      <stop offset="100%" stop-color="#06b6d4"/>
    </linearGradient>
  </defs>
  <rect width="512" height="512" rx="96" fill="#020205"/>
  <rect x="44" y="44" width="424" height="424" rx="80" fill="url(#g)" opacity="0.18"/>
  <path d="M166 256c0-52 38-90 90-90 35 0 63 16 79 45l-41 23c-8-14-21-22-38-22-27 0-45 18-45 44s18 44 45 44c18 0 31-8 39-23l40 23c-16 30-44 45-80 45-52 0-89-38-89-89z" fill="#e2e8f0"/>
  <text x="256" y="396" font-family="Arial, Helvetica, sans-serif" font-size="56" font-weight="700" text-anchor="middle" fill="#60a5fa">ECA</text>
</svg>
